<?xml version="1.0" encoding="UTF-8"?>
<svg id="Layer_1" xmlns="http://www.w3.org/2000/svg" version="1.1" viewBox="0 0 792 612">
  <!-- Generator: Adobe Illustrator 30.3.0, SVG Export Plug-In . SVG Version: 2.1.3 Build 182)  -->
  <defs>
    <style>
      .st0 {
        fill: #f1f2f2;
      }

      .st1 {
        fill: #f1583b;
      }

      .st2 {
        fill: #f1593a;
      }
    </style>
  </defs>
  <g>
    <path class="st1" d="M366.66,280.06l-1.07-7.35-.05-5.05c.55-6.72,1.12-13.05,2.25-19.82,3.01-18.07,7.68-35.61,14.15-52.61,1.42-3.75,5.04-5.71,8.63-5.07,2.31.41,4.28,1.62,5.32,3.24,1.25,1.95,1.28,4.41.83,6.66-1.3,6.64-3.34,12.69-5.23,19.21-4.48,15.51-8.69,30.77-11.12,47.08l21.29-42.58c2.16-4.33,4.7-8.19,7.55-11.89,2.07-2.68,4.89-3.27,7.86-2.36,3.69,1.13,5.58,3.69,5.15,7.62l-3.92,35.75-.7,9.47,9.33-20.7c6.37-14.15,11.6-28.43,16.38-43.21,2.09-6.46,3.61-12.56,4.72-19.24.17-1.04.57-2.9,1.22-3.52,2.18-2.05,4.97-1.96,7.54-.88,1.95.83,3.1,3.08,2.81,5.39-.96,7.49-2.38,14.66-4.43,21.92l-5.99,21.24c-4.14,14.67-15.25,43.81-24.68,54.85-2.23,2.61-6.08,2.98-9.32,2.28-6.5-1.41-11.16-6.9-11.55-13.57l-.35-6.03.37-7.26.35-4.09.97-9.46-12.52,27.16-7.12,14.73c-1.56,3.23-4.67,5.19-8.09,5.37-5,.26-9.34-2.18-10.57-7.28Z"/>
    <path class="st1" d="M562.54,240.41c.66-.98,1.81-1.67,2.59-1.42,5.09,1.65-5.33,18.96-15.07,23.98-3.85,1.98-8.2,1.18-10.72-2.47-2.52-3.65-2.7-8.12-2.02-12.68-4.34,6.04-9.22,11.41-15.36,15.43-3.21,2.1-6.95,2.93-10.39,1.15-2.97-1.53-4.6-4.28-5.45-7.88-4.16,5.2-11.94,13.58-18.89,13.12-4.29-.28-6.85-3.8-7.69-7.77-1.16-10.49,3.62-20.85,7.23-31.38-11.57,8.65-21.7,25.99-27.23,39.74-.49,1.21-.69,3.16-2.03,3.64-2.92,1.05-6.52.38-8.79-1.82-3.6-3.51.44-15.95,2.48-22.36,7.53-23.68,15.86-46.8,24.89-69.96.57-1.47,1.91-3.08,3.44-3.47,3.17-.8,6.92.8,8.74,3.45,1.03,1.5.47,3.58-.14,5.19l-19.14,50.86c4.87-6.67,9.66-12.82,15.83-18.1,2.47-2.12,5.35-3.85,8.61-3.71,2.5.11,5.16,1.22,6.41,3.27,1.81,2.96,1.62,6.2.97,9.5-1.46,7.44-3.84,14.43-6.45,21.54-1.23,3.36-2.32,6.49-2.81,10.22,3.46-1.21,5.39-3.25,7.46-5.58,4.26-4.8,7.66-10.05,10.51-15.83,5.84-11.88,13.2-22.4,25.69-27.46,5.42-2.2,13.28-1.91,14.35,4.42,3.07-1.13,6.01-1.47,8.49.81.64.59.4,2.46.08,3.48l-9.35,29.56-1.28,7.15c6.45-3.58,11.04-8.63,15.06-14.61ZM517.64,254.1c7.29-4.22,12.02-9.87,16.57-15.89,4.45-6.16,8.46-12.23,11.14-19.49-5.77-1.08-13.11,6.52-16.58,11.27-5.24,7.17-9.33,15.34-11.13,24.12Z"/>
    <path class="st1" d="M578.49,234.33c-.93-11.18,5.74-20.62,13.81-28.08l7.17-6.63,6.86-6.94c3.2-3.24,6-6.7,7.84-10.84,1.49-3.35.73-6.81-2.86-8.31-7.67-3.21-17.55.62-23.55,7.07s-4.63,10.53-6.99,11.97c-1.23.75-2.76.54-4.1.3-4.3-.77-7.09-4.2-6.38-8.76.77-4.9,3.88-8.82,7.59-12.23,7.48-6.9,17.46-9.99,27.67-9.7,5.83.16,11.37,1.69,15.68,5.47,5.27,4.62,7.16,10.95,5.99,17.82-1.4,8.18-6.89,14.22-12.59,19.97l-13.73,13.85c-3.85,3.88-7.14,8.22-8.96,13.36l-2.11,5.96c-.78,2.21-3.96,1.58-5.77,1.31-3.18-.46-5.3-2.32-5.57-5.6Z"/>
    <path class="st1" d="M589.25,258.97c-.92,5.25-5.09,9.29-10.38,9.08-4.05-.16-7.76-2.76-8.51-6.72s1.14-7.34,4.49-9.34c3.29-1.96,7.8-1.81,11.1,0,2.7,1.48,3.84,3.89,3.29,6.98Z"/>
  </g>
  <g>
    <path class="st1" d="M743.7,190.37v2.07c-2.53,4.79-4.3,10.59-5.79,16.68-1.85,10.13-5.29,19.29-9.61,28.58l-.1,2.83c-.02.71,2.78.57,3.35.01,2.32-2.25,5.03-6.34,7.68-10.02,1.29,9.61-2.19,18.71-6.59,27-6.1,11.47-15.09,20.13-26.36,26.94l-13.23,23.24c-2.77,4.87-4.9,9.91-8.83,14.16-2.38,2.57-8.3,3.22-11.67,1.65l-52.77-24.62c-4.13-1.93-7.87-5.3-8.17-8.22-.3-2.92.43-5.32,1.25-6.83l23.76-43.79c-3.94-17.31,4.39-32.48,19.07-40.63-1.72,3.69-3.67,7.68-4.61,10.03-.28.7,1.18,3.18,1.92,3.02s2.43-.79,3.05-1.28c13.17-10.29,8.67-27.76,16.57-34.74l5.74-5.07,3.95-2.31,1.41-.81c.31-.18.63,1.34.78,1.97-5.34,4.96-7.97,11.51-6.48,18.98.92,1.08,2.41,2.49,3.47,2.68,4.87.89,8.15-5.11,9.73-11.55,1.84-7.47,5.99-13.8,12.43-17.82,10.51-6.57,17.73-10.28,19.01-23.51h.67c3.84,6.28,3.54,16.15-.7,22.81-4.12,6.47-4.72,13.8-.85,20.46,2.44,4.2,4.02,8.98,4.62,14.14.46,3.93-1.49,8.52-2.18,12.6.45,1.17,3.84.25,4.63-.92l10.53-15.65c.69-1.02,3.33-2.31,4.33-2.07ZM660.93,310.9l11.88,5.72c1.95.94,7.06,1.47,8.12-.38l11.74-20.33,11.36-20.35,10.6-18.98c1.45-2.59.41-8.08-.01-11.04l-5.22-36.39c-.51-3.57-.07-10.67-5.94-13.25-3.03-1.33-6.13-.52-8.59,1.04l-14.06,8.91-9.11,6.26-15.23,10.15c-3.51,2.34-6.45,4.8-8.41,8.61l-8.28,16.1-21.13,39.34c-.55,1.03-.54,3.93.3,4.68.71.64,2.24,1.28,3.48,1.88l9.4,4.52,6.48,3.21,22.63,10.31Z"/>
    <circle class="st2" cx="695.76" cy="214.43" r="7.07"/>
  </g>
  <g>
    <path class="st0" d="M98.63,214.92c6.05,3.21,10.72,7.7,14.04,13.49,3.31,5.79,4.97,12.47,4.97,20.05s-1.66,14.17-4.97,19.99c-3.32,5.83-8.01,10.34-14.09,13.55-6.08,3.21-13.13,4.81-21.14,4.81h-28.73v-76.7h28.73c8.09,0,15.15,1.6,21.2,4.81ZM92.73,264.85c3.93-3.86,5.9-9.32,5.9-16.39s-1.97-12.56-5.9-16.5c-3.93-3.93-9.43-5.9-16.5-5.9h-8.85v44.58h8.85c7.06,0,12.56-1.93,16.5-5.79Z"/>
    <path class="st0" d="M175.88,273.26h-28.63l-4.59,13.55h-19.56l27.75-76.7h21.63l27.75,76.7h-19.78l-4.59-13.55ZM171.07,258.84l-9.5-28.08-9.4,28.08h18.9Z"/>
    <path class="st0" d="M227.34,210.11v76.7h-18.68v-76.7h18.68Z"/>
    <path class="st0" d="M259.57,272.39h24.47v14.42h-43.16v-76.7h18.68v62.28Z"/>
    <path class="st0" d="M358.77,210.11l-26.55,51.35v25.35h-18.68v-25.35l-26.55-51.35h21.2l14.86,32.12,14.75-32.12h20.98Z"/>
  </g>
  <g>
    <path class="st0" d="M140.44,339.64c11.18,5.93,19.83,14.24,25.96,24.95,6.13,10.7,9.19,23.06,9.19,37.06s-3.06,26.19-9.19,36.96c-6.13,10.77-14.82,19.12-26.06,25.05-11.24,5.93-24.27,8.89-39.08,8.89h-53.12v-141.8h53.12c14.95,0,28.01,2.96,39.19,8.89ZM129.54,431.95c7.27-7.14,10.91-17.24,10.91-30.3s-3.64-23.23-10.91-30.5c-7.27-7.27-17.44-10.91-30.5-10.91h-16.36v82.41h16.36c13.06,0,23.23-3.57,30.5-10.7Z"/>
    <path class="st0" d="M229.52,358.42v28.68h46.26v26.66h-46.26v31.11h52.32v27.67h-86.86v-141.8h86.86v27.67h-52.32Z"/>
    <path class="st0" d="M392.52,447.5h-52.92l-8.48,25.05h-36.16l51.31-141.8h39.99l51.31,141.8h-36.56l-8.48-25.05ZM383.63,420.84l-17.57-51.91-17.37,51.91h34.94Z"/>
    <path class="st0" d="M487.66,445.88h45.25v26.66h-79.79v-141.8h34.54v115.13Z"/>
    <path class="st0" d="M572.9,468.91c-8.22-3.37-14.78-8.35-19.69-14.95-4.92-6.6-7.51-14.54-7.78-23.83h36.76c.54,5.25,2.35,9.26,5.45,12.02,3.1,2.76,7.14,4.14,12.12,4.14s9.16-1.18,12.12-3.53c2.96-2.35,4.44-5.62,4.44-9.8,0-3.5-1.18-6.39-3.54-8.69-2.36-2.29-5.25-4.17-8.69-5.66-3.43-1.48-8.32-3.16-14.64-5.05-9.16-2.83-16.63-5.66-22.42-8.48-5.79-2.83-10.78-7-14.95-12.52-4.18-5.52-6.26-12.72-6.26-21.61,0-13.19,4.78-23.53,14.34-31,9.56-7.47,22.02-11.21,37.37-11.21s28.21,3.74,37.77,11.21c9.56,7.48,14.68,17.88,15.35,31.21h-37.37c-.27-4.58-1.95-8.18-5.05-10.81-3.1-2.63-7.07-3.94-11.92-3.94-4.18,0-7.54,1.11-10.1,3.33-2.56,2.22-3.84,5.42-3.84,9.59,0,4.58,2.15,8.15,6.46,10.71,4.31,2.56,11.04,5.32,20.2,8.28,9.16,3.1,16.6,6.06,22.32,8.89,5.72,2.83,10.67,6.94,14.85,12.32,4.17,5.39,6.26,12.32,6.26,20.8s-2.05,15.42-6.16,22.02c-4.11,6.6-10.07,11.85-17.88,15.76-7.81,3.91-17.04,5.86-27.67,5.86s-19.66-1.68-27.87-5.05Z"/>
  </g>
  <path class="st1" d="M552.45,287.69l7.46,1.04-13.86,1.17c-32.81,2.78-66.43,8.15-97.71,19.05-10.87,3.79-20.97,8.48-30.97,14.04-2.84,1.58-5.43,2.14-8.59,1.19-5.34-1.6-16.38-5.04-16.32-9.15.01-.99.68-2.85,1.72-3.54,7.71-5.08,16.18-8.46,24.96-11.45l14.54-4.96c21.62-6.64,43.49-11.02,66.03-12.54l7.26-.49,6.5-.4,37.67-.06,4.15.68c-7.2.02-14.25.36-21.58,1.27-.71.1-3.15.64-3.15.64,0,0,2.57.22,3.27.23l7.44.3c4.05.11,9.84.67,13.98.99l11.96,1.46.24.45-15.01.08Z"/>
</svg>